<?xml version="1.0" encoding="utf-8"?>
<!-- Generator: Adobe Illustrator 17.0.0, SVG Export Plug-In . SVG Version: 6.00 Build 0)  -->
<!DOCTYPE svg PUBLIC "-//W3C//DTD SVG 1.1//EN" "http://www.w3.org/Graphics/SVG/1.1/DTD/svg11.dtd">
<svg version="1.1" id="Warstwa_1" xmlns="http://www.w3.org/2000/svg" xmlns:xlink="http://www.w3.org/1999/xlink" x="0px" y="0px"
	 width="102.05px" height="102.05px" viewBox="0 0 102.05 102.05" enable-background="new 0 0 102.05 102.05" xml:space="preserve">
<g>
	<path fill="#FBBA18" d="M53.286,67.152c-0.716-3.31,0.626-5.905,8.008-10.781c6.465-4.271,4.249-18.118,2.281-20.802
		c-1.432,6.263-6.352,9.663-12.436,15.478C45.054,56.863,51.407,66.704,53.286,67.152z"/>
	<path fill="#F6891F" d="M45.681,56.862c1.7-9.305,13.689-12.615,17.134-25.812c3.182-12.189-14.136-20.041-10.826-30.062
		c-11.184,9.394-5.099,15.729,0.089,26.483C56.999,37.671,42.102,48.989,45.681,56.862z"/>
	<path fill="#FBBA18" d="M44.384,22.819c4.921,3.31,7.365,11.88,0.671,22.054c-6.71,10.2,2.013,20.802,2.013,20.802
		s-13.6-6.352-13.152-18.699C34.363,34.629,46.263,35.703,44.384,22.819z"/>
</g>
<g>
	<path fill="#424143" d="M16.193,95.432h-3.217V74.084h9.159v3.235h-5.941v5.821h4.341v3.234h-4.341V95.432z"/>
	<path fill="#424143" d="M27.564,95.432h-3.217v-21.33h3.217V95.432z"/>
	<path fill="#424143" d="M35.515,74.102c1.793,0,3.109,0.493,3.949,1.48c0.737,0.863,1.106,2.066,1.106,3.609v3.099
		c0,1.509-0.573,2.786-1.719,3.83l2.383,9.312h-3.479l-1.951-8.035c-0.091,0-0.187,0-0.289,0h-1.856v8.035h-3.217v-21.33H35.515z
		 M37.438,79.242c0-1.236-0.613-1.855-1.838-1.855h-1.941v6.826H35.6c0.511,0,0.945-0.181,1.302-0.544s0.536-0.801,0.536-1.312
		V79.242z"/>
	<path fill="#424143" d="M43.991,95.432V74.084h9.158v3.235h-5.941v5.821h4.341v3.234h-4.341v5.822h5.941v3.234H43.991z"/>
	<path fill="#424143" d="M59.495,90.529l-0.781,4.902h-3.351l3.626-21.33h4.426l3.575,21.33h-3.383l-0.753-4.902H59.495z
		 M61.186,78.987l-1.191,8.409h2.383L61.186,78.987z"/>
	<path fill="#424143" d="M74.77,74.102c1.793,0,3.109,0.493,3.949,1.48c0.737,0.863,1.106,2.066,1.106,3.609v3.099
		c0,1.509-0.573,2.786-1.72,3.83l2.384,9.312H77.01l-1.951-8.035c-0.091,0-0.188,0-0.289,0h-1.855v8.035h-3.218v-21.33H74.77z
		 M76.693,79.242c0-1.236-0.613-1.855-1.839-1.855h-1.94v6.826h1.94c0.511,0,0.944-0.181,1.302-0.544
		c0.358-0.363,0.537-0.801,0.537-1.312V79.242z"/>
	<path fill="#424143" d="M85.613,77.336h-3.422v-3.234h10.044v3.234H88.83v18.096h-3.217V77.336z"/>
</g>
<g>
	<path fill="#424143" d="M26.789,101.062v-2.185h-0.816v-0.292h1.963v0.292h-0.819v2.185H26.789z"/>
	<path fill="#424143" d="M29.396,101.062l-0.657-2.477h0.336l0.377,1.623c0.041,0.171,0.075,0.34,0.104,0.507
		c0.063-0.265,0.1-0.417,0.111-0.457l0.472-1.673h0.395l0.355,1.254c0.089,0.311,0.153,0.603,0.192,0.876
		c0.032-0.156,0.073-0.336,0.124-0.538l0.389-1.592h0.329l-0.679,2.477h-0.316l-0.522-1.887c-0.044-0.158-0.07-0.255-0.078-0.291
		c-0.026,0.114-0.05,0.211-0.073,0.291l-0.525,1.887H29.396z"/>
	<path fill="#424143" d="M32.822,99.855c0-0.411,0.11-0.733,0.331-0.966s0.505-0.349,0.854-0.349c0.229,0,0.435,0.055,0.619,0.164
		s0.323,0.262,0.419,0.457c0.097,0.195,0.145,0.417,0.145,0.664c0,0.252-0.05,0.477-0.152,0.675s-0.245,0.348-0.431,0.45
		c-0.186,0.102-0.387,0.152-0.602,0.152c-0.233,0-0.441-0.056-0.625-0.169c-0.184-0.112-0.323-0.266-0.417-0.461
		S32.822,100.072,32.822,99.855z M33.16,99.86c0,0.299,0.08,0.533,0.241,0.705c0.16,0.172,0.362,0.258,0.604,0.258
		c0.247,0,0.45-0.087,0.609-0.26c0.159-0.174,0.239-0.42,0.239-0.738c0-0.202-0.034-0.378-0.102-0.528s-0.168-0.267-0.299-0.35
		c-0.131-0.083-0.279-0.124-0.442-0.124c-0.232,0-0.432,0.079-0.599,0.239C33.244,99.222,33.16,99.487,33.16,99.86z"/>
	<path fill="#424143" d="M36.137,100.358l0.296-0.04c0.008,0.189,0.043,0.318,0.106,0.389c0.063,0.069,0.15,0.104,0.262,0.104
		c0.082,0,0.153-0.019,0.213-0.057s0.101-0.089,0.123-0.153c0.023-0.065,0.034-0.169,0.034-0.311v-1.706h0.328v1.688
		c0,0.207-0.025,0.368-0.075,0.481c-0.05,0.114-0.129,0.2-0.238,0.261c-0.109,0.06-0.236,0.089-0.383,0.089
		c-0.217,0-0.384-0.063-0.499-0.188C36.188,100.791,36.133,100.605,36.137,100.358z"/>
	<path fill="#424143" d="M38.455,101.062l0.951-2.477h0.353l1.014,2.477h-0.374l-0.289-0.75h-1.036l-0.272,0.75H38.455z
		 M39.169,100.045h0.84l-0.259-0.687c-0.079-0.208-0.137-0.379-0.175-0.514c-0.032,0.159-0.076,0.316-0.134,0.474L39.169,100.045z"
		/>
	<path fill="#424143" d="M43.179,101.062v-2.477h0.493l0.586,1.754c0.054,0.163,0.093,0.285,0.118,0.366
		c0.028-0.09,0.072-0.223,0.132-0.397l0.593-1.723h0.441v2.477h-0.316v-2.073l-0.72,2.073h-0.295l-0.716-2.108v2.108H43.179z"/>
	<path fill="#424143" d="M46.491,101.062l0.951-2.477h0.353l1.014,2.477h-0.374l-0.289-0.75h-1.036l-0.272,0.75H46.491z
		 M47.206,100.045h0.84l-0.259-0.687c-0.079-0.208-0.137-0.379-0.175-0.514c-0.032,0.159-0.076,0.316-0.134,0.474L47.206,100.045z"
		/>
	<path fill="#424143" d="M49.768,101.062v-2.477h1.098c0.221,0,0.389,0.022,0.503,0.066c0.115,0.045,0.207,0.123,0.275,0.236
		c0.069,0.112,0.103,0.236,0.103,0.373c0,0.176-0.057,0.323-0.17,0.444c-0.114,0.12-0.29,0.197-0.527,0.229
		c0.087,0.042,0.153,0.083,0.198,0.123c0.096,0.088,0.187,0.198,0.272,0.33l0.431,0.674h-0.412l-0.328-0.516
		c-0.096-0.148-0.175-0.262-0.237-0.341c-0.062-0.079-0.117-0.134-0.166-0.166c-0.049-0.031-0.099-0.053-0.15-0.065
		c-0.037-0.008-0.098-0.012-0.182-0.012h-0.38v1.1H49.768z M50.095,99.678H50.8c0.15,0,0.267-0.016,0.352-0.046
		c0.084-0.031,0.148-0.081,0.192-0.149c0.044-0.067,0.066-0.142,0.066-0.222c0-0.117-0.042-0.214-0.127-0.289
		s-0.219-0.113-0.403-0.113h-0.784V99.678z"/>
	<path fill="#424143" d="M52.939,101.062v-2.477h0.328v1.229l1.23-1.229h0.443l-1.038,1.003l1.084,1.474h-0.433l-0.882-1.254
		l-0.405,0.396v0.858H52.939z"/>
	<path fill="#424143" d="M55.682,101.062l0.951-2.477h0.353l1.014,2.477h-0.373l-0.289-0.75h-1.035l-0.272,0.75H55.682z
		 M56.396,100.045h0.839l-0.258-0.687c-0.079-0.208-0.138-0.379-0.176-0.514c-0.032,0.159-0.076,0.316-0.134,0.474L56.396,100.045z"
		/>
	<path fill="#424143" d="M60.848,101.062l-0.657-2.477h0.337l0.376,1.623c0.041,0.171,0.076,0.34,0.105,0.507
		c0.063-0.265,0.1-0.417,0.111-0.457l0.471-1.673h0.396l0.354,1.254c0.09,0.311,0.153,0.603,0.193,0.876
		c0.031-0.156,0.072-0.336,0.123-0.538l0.389-1.592h0.329l-0.679,2.477H62.38l-0.521-1.887c-0.044-0.158-0.07-0.255-0.078-0.291
		c-0.025,0.114-0.05,0.211-0.072,0.291l-0.525,1.887H60.848z"/>
	<path fill="#424143" d="M65.914,100.266l0.31-0.026c0.015,0.123,0.049,0.225,0.102,0.305c0.054,0.079,0.137,0.144,0.25,0.192
		c0.112,0.049,0.239,0.073,0.38,0.073c0.125,0,0.235-0.019,0.331-0.056s0.167-0.088,0.214-0.152c0.047-0.065,0.07-0.136,0.07-0.213
		s-0.023-0.146-0.068-0.203s-0.119-0.106-0.223-0.146c-0.066-0.025-0.214-0.065-0.441-0.12s-0.387-0.106-0.478-0.155
		c-0.118-0.062-0.206-0.139-0.265-0.23c-0.058-0.092-0.087-0.194-0.087-0.308c0-0.125,0.035-0.242,0.106-0.351
		c0.071-0.109,0.175-0.191,0.311-0.248c0.137-0.057,0.288-0.084,0.455-0.084c0.184,0,0.345,0.029,0.485,0.088
		c0.141,0.06,0.248,0.146,0.323,0.262c0.076,0.114,0.116,0.245,0.122,0.39l-0.314,0.024c-0.017-0.157-0.074-0.275-0.171-0.355
		c-0.098-0.08-0.242-0.12-0.432-0.12c-0.198,0-0.343,0.037-0.434,0.109s-0.136,0.16-0.136,0.263c0,0.089,0.031,0.162,0.096,0.22
		c0.063,0.058,0.228,0.116,0.494,0.177c0.267,0.06,0.449,0.112,0.549,0.157c0.144,0.067,0.25,0.151,0.318,0.253
		c0.069,0.102,0.104,0.22,0.104,0.353c0,0.132-0.038,0.256-0.113,0.372c-0.075,0.117-0.184,0.207-0.325,0.272
		c-0.142,0.064-0.301,0.097-0.478,0.097c-0.224,0-0.411-0.032-0.563-0.098c-0.151-0.065-0.27-0.164-0.356-0.295
		C65.964,100.58,65.919,100.432,65.914,100.266z"/>
	<path fill="#424143" d="M69.081,101.062v-2.477h0.328v2.477H69.081z"/>
	<path fill="#424143" d="M70.686,101.062v-2.477h1.791v0.292h-1.463v0.759h1.37v0.29h-1.37v0.844h1.521v0.292H70.686z"/>
	<path fill="#424143" d="M75.446,100.193l0.327,0.083c-0.068,0.269-0.191,0.474-0.37,0.615s-0.397,0.212-0.655,0.212
		c-0.267,0-0.483-0.054-0.651-0.163c-0.167-0.108-0.294-0.266-0.381-0.472c-0.088-0.206-0.132-0.428-0.132-0.664
		c0-0.258,0.05-0.483,0.148-0.675c0.099-0.192,0.238-0.338,0.421-0.438c0.182-0.1,0.382-0.149,0.601-0.149
		c0.247,0,0.456,0.063,0.625,0.188c0.169,0.127,0.286,0.304,0.353,0.532l-0.322,0.076c-0.058-0.18-0.141-0.312-0.25-0.394
		s-0.247-0.123-0.412-0.123c-0.19,0-0.35,0.046-0.478,0.137s-0.218,0.214-0.27,0.367c-0.052,0.154-0.078,0.313-0.078,0.476
		c0,0.211,0.031,0.395,0.093,0.552s0.156,0.274,0.286,0.353c0.13,0.077,0.27,0.116,0.421,0.116c0.184,0,0.339-0.053,0.466-0.159
		C75.314,100.559,75.401,100.401,75.446,100.193z"/>
	<path fill="#424143" d="M76.925,101.062v-2.477h0.328v2.477H76.925z"/>
</g>
<g>
</g>
<g>
</g>
<g>
</g>
<g>
</g>
<g>
</g>
<g>
</g>
</svg>
